<?xml version="1.0" standalone="no"?>
<!DOCTYPE svg PUBLIC "-//W3C//DTD SVG 20010904//EN"
 "http://www.w3.org/TR/2001/REC-SVG-20010904/DTD/svg10.dtd">
<svg version="1.0" xmlns="http://www.w3.org/2000/svg"
 width="980.000000pt" height="980.000000pt" viewBox="0 0 980.000000 980.000000"
 preserveAspectRatio="xMidYMid meet">

<g transform="translate(0.000000,980.000000) scale(0.100000,-0.100000)"
fill="#000000" stroke="none">
<path d="M2447 4895 l-2447 -4895 4900 0 4900 0 -2447 4895 c-1347 2692 -2450
4895 -2453 4895 -3 0 -1106 -2203 -2453 -4895z m4291 -490 c1007 -2016 1832
-3667 1832 -3670 0 -3 -1651 -5 -3670 -5 -2018 0 -3670 2 -3670 5 0 10 3665
7335 3670 7335 3 0 830 -1649 1838 -3665z"/>
</g>
</svg>
